<?xml version="1.0" encoding="iso-8859-1"?>
<!-- Generator: Adobe Illustrator 21.1.0, SVG Export Plug-In . SVG Version: 6.00 Build 0)  -->
<svg version="1.1" id="Icons" xmlns="http://www.w3.org/2000/svg" xmlns:xlink="http://www.w3.org/1999/xlink" x="0px" y="0px"
	 viewBox="0 0 256 256" style="enable-background:new 0 0 256 256;" xml:space="preserve">
<g>
	<g>
		<path fill="#124191" stroke="#124191" id="XMLID_90_" d="M86.905,237.804c0,6.723,5.47,12.19,12.19,12.19s12.19-5.467,12.19-12.19c0-6.723-5.47-12.19-12.19-12.19
			S86.905,231.08,86.905,237.804z"/>
		<path fill="#124191" stroke="#124191" id="XMLID_91_" d="M189,237.804c0,6.723,5.47,12.19,12.19,12.19c6.72,0,12.19-5.467,12.19-12.19
			c0-6.723-5.47-12.19-12.19-12.19C194.47,225.613,189,231.08,189,237.804z"/>
		<path fill="#124191" stroke="#124191" id="XMLID_92_" d="M12.19,18.196h26.583c0.423,0,1.179,0.619,1.256,1.039l32.577,169.81
			c1.179,6.128,6.988,10.932,13.232,10.932H214.44c6.226,0,12.048-4.786,13.256-10.893l20.917-105.911
			c0.661-3.363-0.149-6.741-2.232-9.274c-2.077-2.53-5.238-3.982-8.667-3.982H92.506c-3.369,0-6.095,2.729-6.095,6.095
			c0,3.366,2.726,6.095,6.095,6.095h143.887l-20.661,104.616c-0.083,0.426-0.857,1.062-1.292,1.062H85.839
			c-0.435,0-1.179-0.61-1.256-1.039L52.006,16.938C50.827,10.81,45.018,6.006,38.774,6.006H12.19c-3.369,0-6.095,2.729-6.095,6.095
			S8.821,18.196,12.19,18.196z"/>
	</g>
</g>
</svg>
