<?xml version="1.0" encoding="iso-8859-1"?>
<!-- Generator: Adobe Illustrator 21.1.0, SVG Export Plug-In . SVG Version: 6.00 Build 0)  -->
<svg version="1.1" id="Icons" xmlns="http://www.w3.org/2000/svg" xmlns:xlink="http://www.w3.org/1999/xlink" x="0px" y="0px"
	 viewBox="0 0 256 256" style="enable-background:new 0 0 256 256;" xml:space="preserve">
<g>
	<g>
		<path fill="#124191" id="XMLID_37_" d="M207.238,117.554c-3.369,0-6.095,2.729-6.095,6.095v102.018c0,6.643-5.548,12.048-12.369,12.048H67.226
			c-6.821,0-12.369-5.405-12.369-12.048V123.649c0-3.366-2.726-6.095-6.095-6.095c-3.369,0-6.095,2.729-6.095,6.095v102.018
			c0,13.366,11.018,24.238,24.56,24.238h121.548c13.542,0,24.56-10.872,24.56-24.238V123.649
			C213.333,120.283,210.607,117.554,207.238,117.554z"/>
		<path fill="#124191" id="XMLID_38_" d="M145.708,13.31c-9.762-9.589-25.649-9.589-35.423,0L7.917,113.902c-2.399,2.36-2.435,6.22-0.071,8.619
			c2.351,2.399,6.202,2.435,8.619,0.077L118.827,22.006c5.06-4.964,13.292-4.964,18.339,0l102.369,100.592
			c1.19,1.167,2.732,1.747,4.274,1.747c1.577,0,3.155-0.61,4.345-1.824c2.363-2.399,2.327-6.259-0.071-8.619L145.708,13.31z"/>
	</g>
</g>
</svg>
